<?xml version="1.0" standalone="no"?>
<!DOCTYPE svg PUBLIC "-//W3C//DTD SVG 20010904//EN"
 "http://www.w3.org/TR/2001/REC-SVG-20010904/DTD/svg10.dtd">
<svg version="1.0" xmlns="http://www.w3.org/2000/svg"
 width="60.000000pt" height="61.000000pt" viewBox="0 0 60.000000 61.000000"
 preserveAspectRatio="xMidYMid meet">

<g transform="translate(0.000000,61.000000) scale(0.100000,-0.100000)"
fill=" #63372c" stroke="none">
<path d="M25 585 l-25 -24 0 -249 c0 -237 1 -251 21 -276 l20 -26 260 0 c246
0 260 1 279 20 19 19 20 33 20 279 l0 260 -26 20 c-25 20 -39 21 -276 21
l-249 0 -24 -25z m465 -73 c0 -21 -29 -32 -82 -32 l-58 0 0 -58 c0 -46 -4 -63
-20 -77 -20 -18 -20 -17 -20 78 l0 97 90 0 c50 0 90 -4 90 -8z m20 -117 l0
-85 -80 0 c-44 0 -80 4 -80 8 0 20 28 32 72 32 l48 0 0 47 c0 29 6 53 17 65 9
10 18 18 20 18 1 0 3 -38 3 -85z m-280 -78 c0 -68 -10 -97 -32 -97 -4 0 -8 29
-8 65 l0 65 -30 0 -30 0 0 -103 c0 -97 -8 -127 -32 -127 -4 0 -8 61 -8 135 l0
135 70 0 70 0 0 -73z m158 -149 l3 -68 -132 0 c-131 0 -132 0 -114 20 16 17
31 20 112 20 l94 0 -3 28 c-3 26 -6 27 -62 30 -57 3 -58 3 -40 23 15 16 28 19
78 17 l61 -3 3 -67z"/>
</g>
</svg>
